<svg width="130" height="132" viewBox="0 0 130 132" fill="none" xmlns="http://www.w3.org/2000/svg">
<rect x="0.5" y="0.5" width="129" height="131" rx="17.5" fill="#EDF2F7" stroke="#4C535F" stroke-dasharray="5 5"/>
<path d="M35.5449 89.18C34.8769 89.18 34.2869 89.042 33.7749 88.766C33.2629 88.49 32.8609 88.104 32.5689 87.608C32.2809 87.108 32.1369 86.522 32.1369 85.85V80.366L33.2169 80.36V85.76C33.2169 86.168 33.2849 86.524 33.4209 86.828C33.5609 87.128 33.7449 87.378 33.9729 87.578C34.2009 87.778 34.4509 87.928 34.7229 88.028C34.9989 88.124 35.2729 88.172 35.5449 88.172C35.8209 88.172 36.0969 88.122 36.3729 88.022C36.6489 87.922 36.8989 87.774 37.1229 87.578C37.3509 87.378 37.5329 87.126 37.6689 86.822C37.8049 86.518 37.8729 86.164 37.8729 85.76V80.36H38.9529V85.85C38.9529 86.518 38.8069 87.102 38.5149 87.602C38.2269 88.102 37.8269 88.49 37.3149 88.766C36.8029 89.042 36.2129 89.18 35.5449 89.18ZM43.609 89.18C43.001 89.18 42.489 89.03 42.073 88.73C41.657 88.426 41.341 88.016 41.125 87.5C40.913 86.98 40.807 86.398 40.807 85.754C40.807 85.102 40.913 84.518 41.125 84.002C41.341 83.486 41.657 83.08 42.073 82.784C42.493 82.488 43.007 82.34 43.615 82.34C44.215 82.34 44.731 82.49 45.163 82.79C45.599 83.086 45.933 83.492 46.165 84.008C46.397 84.524 46.513 85.106 46.513 85.754C46.513 86.402 46.397 86.984 46.165 87.5C45.933 88.016 45.599 88.426 45.163 88.73C44.731 89.03 44.213 89.18 43.609 89.18ZM40.627 91.88V82.52H41.581V87.29H41.701V91.88H40.627ZM43.477 88.202C43.905 88.202 44.259 88.094 44.539 87.878C44.819 87.662 45.029 87.37 45.169 87.002C45.309 86.63 45.379 86.214 45.379 85.754C45.379 85.298 45.309 84.886 45.169 84.518C45.033 84.15 44.821 83.858 44.533 83.642C44.249 83.426 43.887 83.318 43.447 83.318C43.027 83.318 42.679 83.422 42.403 83.63C42.127 83.834 41.921 84.12 41.785 84.488C41.649 84.852 41.581 85.274 41.581 85.754C41.581 86.226 41.647 86.648 41.779 87.02C41.915 87.388 42.123 87.678 42.403 87.89C42.683 88.098 43.041 88.202 43.477 88.202ZM47.9483 89V80.18H49.0163V89H47.9483ZM53.5766 89.18C52.9326 89.18 52.3766 89.034 51.9086 88.742C51.4446 88.45 51.0866 88.046 50.8346 87.53C50.5826 87.014 50.4566 86.422 50.4566 85.754C50.4566 85.074 50.5846 84.478 50.8406 83.966C51.0966 83.454 51.4586 83.056 51.9266 82.772C52.3946 82.484 52.9446 82.34 53.5766 82.34C54.2246 82.34 54.7826 82.486 55.2506 82.778C55.7186 83.066 56.0766 83.468 56.3246 83.984C56.5766 84.496 56.7026 85.086 56.7026 85.754C56.7026 86.43 56.5766 87.026 56.3246 87.542C56.0726 88.054 55.7126 88.456 55.2446 88.748C54.7766 89.036 54.2206 89.18 53.5766 89.18ZM53.5766 88.166C54.2486 88.166 54.7486 87.942 55.0766 87.494C55.4046 87.046 55.5686 86.466 55.5686 85.754C55.5686 85.022 55.4026 84.44 55.0706 84.008C54.7386 83.572 54.2406 83.354 53.5766 83.354C53.1246 83.354 52.7526 83.456 52.4606 83.66C52.1686 83.864 51.9506 84.146 51.8066 84.506C51.6626 84.866 51.5906 85.282 51.5906 85.754C51.5906 86.482 51.7586 87.066 52.0946 87.506C52.4306 87.946 52.9246 88.166 53.5766 88.166ZM59.8656 89.18C59.3816 89.18 58.9756 89.092 58.6476 88.916C58.3236 88.736 58.0776 88.5 57.9096 88.208C57.7456 87.916 57.6636 87.596 57.6636 87.248C57.6636 86.908 57.7276 86.614 57.8556 86.366C57.9876 86.114 58.1716 85.906 58.4076 85.742C58.6436 85.574 58.9256 85.442 59.2536 85.346C59.5616 85.262 59.9056 85.19 60.2856 85.13C60.6696 85.066 61.0576 85.008 61.4496 84.956C61.8416 84.904 62.2076 84.854 62.5476 84.806L62.1636 85.028C62.1756 84.452 62.0596 84.026 61.8156 83.75C61.5756 83.474 61.1596 83.336 60.5676 83.336C60.1756 83.336 59.8316 83.426 59.5356 83.606C59.2436 83.782 59.0376 84.07 58.9176 84.47L57.9036 84.164C58.0596 83.596 58.3616 83.15 58.8096 82.826C59.2576 82.502 59.8476 82.34 60.5796 82.34C61.1676 82.34 61.6716 82.446 62.0916 82.658C62.5156 82.866 62.8196 83.182 63.0036 83.606C63.0956 83.806 63.1536 84.024 63.1776 84.26C63.2016 84.492 63.2136 84.736 63.2136 84.992V89H62.2656V87.446L62.4876 87.59C62.2436 88.114 61.9016 88.51 61.4616 88.778C61.0256 89.046 60.4936 89.18 59.8656 89.18ZM60.0276 88.286C60.4116 88.286 60.7436 88.218 61.0236 88.082C61.3076 87.942 61.5356 87.76 61.7076 87.536C61.8796 87.308 61.9916 87.06 62.0436 86.792C62.1036 86.592 62.1356 86.37 62.1396 86.126C62.1476 85.878 62.1516 85.688 62.1516 85.556L62.5236 85.718C62.1756 85.766 61.8336 85.812 61.4976 85.856C61.1616 85.9 60.8436 85.948 60.5436 86C60.2436 86.048 59.9736 86.106 59.7336 86.174C59.5576 86.23 59.3916 86.302 59.2356 86.39C59.0836 86.478 58.9596 86.592 58.8636 86.732C58.7716 86.868 58.7256 87.038 58.7256 87.242C58.7256 87.418 58.7696 87.586 58.8576 87.746C58.9496 87.906 59.0896 88.036 59.2776 88.136C59.4696 88.236 59.7196 88.286 60.0276 88.286ZM67.3176 89.18C66.7136 89.18 66.1956 89.03 65.7636 88.73C65.3316 88.426 64.9976 88.016 64.7616 87.5C64.5296 86.984 64.4136 86.402 64.4136 85.754C64.4136 85.106 64.5296 84.524 64.7616 84.008C64.9976 83.492 65.3316 83.086 65.7636 82.79C66.1956 82.49 66.7116 82.34 67.3116 82.34C67.9236 82.34 68.4376 82.488 68.8536 82.784C69.2696 83.08 69.5836 83.486 69.7956 84.002C70.0116 84.518 70.1196 85.102 70.1196 85.754C70.1196 86.398 70.0116 86.98 69.7956 87.5C69.5836 88.016 69.2696 88.426 68.8536 88.73C68.4376 89.03 67.9256 89.18 67.3176 89.18ZM67.4496 88.202C67.8856 88.202 68.2436 88.098 68.5236 87.89C68.8036 87.678 69.0096 87.388 69.1416 87.02C69.2776 86.648 69.3456 86.226 69.3456 85.754C69.3456 85.274 69.2776 84.852 69.1416 84.488C69.0096 84.12 68.8056 83.834 68.5296 83.63C68.2536 83.422 67.9036 83.318 67.4796 83.318C67.0396 83.318 66.6756 83.426 66.3876 83.642C66.1036 83.858 65.8916 84.15 65.7516 84.518C65.6156 84.886 65.5476 85.298 65.5476 85.754C65.5476 86.214 65.6176 86.63 65.7576 87.002C65.8976 87.37 66.1076 87.662 66.3876 87.878C66.6716 88.094 67.0256 88.202 67.4496 88.202ZM69.3456 89V84.23H69.2256V80.36H70.2996V89H69.3456ZM75.283 91.88L76.537 88.472L76.555 89.48L73.723 82.52H74.845L77.065 88.118H76.681L78.763 82.52H79.849L76.321 91.88H75.283ZM83.3656 89.18C82.7216 89.18 82.1656 89.034 81.6976 88.742C81.2336 88.45 80.8756 88.046 80.6236 87.53C80.3716 87.014 80.2456 86.422 80.2456 85.754C80.2456 85.074 80.3736 84.478 80.6296 83.966C80.8856 83.454 81.2476 83.056 81.7156 82.772C82.1836 82.484 82.7336 82.34 83.3656 82.34C84.0136 82.34 84.5716 82.486 85.0396 82.778C85.5076 83.066 85.8656 83.468 86.1136 83.984C86.3656 84.496 86.4916 85.086 86.4916 85.754C86.4916 86.43 86.3656 87.026 86.1136 87.542C85.8616 88.054 85.5016 88.456 85.0336 88.748C84.5656 89.036 84.0096 89.18 83.3656 89.18ZM83.3656 88.166C84.0376 88.166 84.5376 87.942 84.8656 87.494C85.1936 87.046 85.3576 86.466 85.3576 85.754C85.3576 85.022 85.1916 84.44 84.8596 84.008C84.5276 83.572 84.0296 83.354 83.3656 83.354C82.9136 83.354 82.5416 83.456 82.2496 83.66C81.9576 83.864 81.7396 84.146 81.5956 84.506C81.4516 84.866 81.3796 85.282 81.3796 85.754C81.3796 86.482 81.5476 87.066 81.8836 87.506C82.2196 87.946 82.7136 88.166 83.3656 88.166ZM90.2727 89.168C89.8567 89.168 89.4987 89.102 89.1987 88.97C88.9027 88.838 88.6567 88.662 88.4607 88.442C88.2647 88.222 88.1107 87.978 87.9987 87.71C87.8867 87.442 87.8067 87.168 87.7587 86.888C87.7147 86.608 87.6927 86.346 87.6927 86.102V82.52H88.7727V85.766C88.7727 86.07 88.8007 86.364 88.8567 86.648C88.9127 86.932 89.0067 87.188 89.1387 87.416C89.2747 87.644 89.4547 87.824 89.6787 87.956C89.9067 88.088 90.1907 88.154 90.5307 88.154C90.7987 88.154 91.0427 88.108 91.2627 88.016C91.4827 87.924 91.6707 87.788 91.8267 87.608C91.9827 87.424 92.1027 87.192 92.1867 86.912C92.2707 86.632 92.3127 86.306 92.3127 85.934L93.0147 86.15C93.0147 86.774 92.9007 87.312 92.6727 87.764C92.4487 88.216 92.1307 88.564 91.7187 88.808C91.3107 89.048 90.8287 89.168 90.2727 89.168ZM92.4327 89V87.266H92.3127V82.52H93.3867V89H92.4327ZM95.0666 89V82.52H96.0206V84.086L95.8646 83.882C95.9406 83.682 96.0386 83.498 96.1586 83.33C96.2826 83.162 96.4206 83.024 96.5726 82.916C96.7406 82.78 96.9306 82.676 97.1426 82.604C97.3546 82.532 97.5706 82.49 97.7906 82.478C98.0106 82.462 98.2166 82.476 98.4086 82.52V83.522C98.1846 83.462 97.9386 83.446 97.6706 83.474C97.4026 83.502 97.1546 83.6 96.9266 83.768C96.7186 83.916 96.5566 84.096 96.4406 84.308C96.3286 84.52 96.2506 84.75 96.2066 84.998C96.1626 85.242 96.1406 85.492 96.1406 85.748V89H95.0666ZM52.0523 105.18C51.4443 105.18 50.9323 105.03 50.5163 104.73C50.1003 104.426 49.7843 104.016 49.5683 103.5C49.3563 102.98 49.2503 102.398 49.2503 101.754C49.2503 101.102 49.3563 100.518 49.5683 100.002C49.7843 99.486 50.1003 99.08 50.5163 98.784C50.9363 98.488 51.4503 98.34 52.0583 98.34C52.6583 98.34 53.1743 98.49 53.6063 98.79C54.0423 99.086 54.3763 99.492 54.6083 100.008C54.8403 100.524 54.9563 101.106 54.9563 101.754C54.9563 102.402 54.8403 102.984 54.6083 103.5C54.3763 104.016 54.0423 104.426 53.6063 104.73C53.1743 105.03 52.6563 105.18 52.0523 105.18ZM49.0703 107.88V98.52H50.0243V103.29H50.1443V107.88H49.0703ZM51.9203 104.202C52.3483 104.202 52.7023 104.094 52.9823 103.878C53.2623 103.662 53.4723 103.37 53.6123 103.002C53.7523 102.63 53.8223 102.214 53.8223 101.754C53.8223 101.298 53.7523 100.886 53.6123 100.518C53.4763 100.15 53.2643 99.858 52.9763 99.642C52.6923 99.426 52.3303 99.318 51.8903 99.318C51.4703 99.318 51.1223 99.422 50.8463 99.63C50.5703 99.834 50.3643 100.12 50.2283 100.488C50.0923 100.852 50.0243 101.274 50.0243 101.754C50.0243 102.226 50.0903 102.648 50.2223 103.02C50.3583 103.388 50.5663 103.678 50.8463 103.89C51.1263 104.098 51.4843 104.202 51.9203 104.202ZM60.8856 105V101.754C60.8856 101.446 60.8576 101.15 60.8016 100.866C60.7496 100.582 60.6556 100.328 60.5196 100.104C60.3876 99.876 60.2076 99.696 59.9796 99.564C59.7556 99.432 59.4716 99.366 59.1276 99.366C58.8596 99.366 58.6156 99.412 58.3956 99.504C58.1796 99.592 57.9936 99.728 57.8376 99.912C57.6816 100.096 57.5596 100.328 57.4716 100.608C57.3876 100.884 57.3456 101.21 57.3456 101.586L56.6436 101.37C56.6436 100.742 56.7556 100.204 56.9796 99.756C57.2076 99.304 57.5256 98.958 57.9336 98.718C58.3456 98.474 58.8296 98.352 59.3856 98.352C59.8056 98.352 60.1636 98.418 60.4596 98.55C60.7556 98.682 61.0016 98.858 61.1976 99.078C61.3936 99.294 61.5476 99.538 61.6596 99.81C61.7716 100.078 61.8496 100.352 61.8936 100.632C61.9416 100.908 61.9656 101.17 61.9656 101.418V105H60.8856ZM56.2656 105V96.36H57.2256V101.13H57.3456V105H56.2656ZM66.2855 105.18C65.6415 105.18 65.0855 105.034 64.6175 104.742C64.1535 104.45 63.7955 104.046 63.5435 103.53C63.2915 103.014 63.1655 102.422 63.1655 101.754C63.1655 101.074 63.2935 100.478 63.5495 99.966C63.8055 99.454 64.1675 99.056 64.6355 98.772C65.1035 98.484 65.6535 98.34 66.2855 98.34C66.9335 98.34 67.4915 98.486 67.9595 98.778C68.4275 99.066 68.7855 99.468 69.0335 99.984C69.2855 100.496 69.4115 101.086 69.4115 101.754C69.4115 102.43 69.2855 103.026 69.0335 103.542C68.7815 104.054 68.4215 104.456 67.9535 104.748C67.4855 105.036 66.9295 105.18 66.2855 105.18ZM66.2855 104.166C66.9575 104.166 67.4575 103.942 67.7855 103.494C68.1135 103.046 68.2775 102.466 68.2775 101.754C68.2775 101.022 68.1115 100.44 67.7795 100.008C67.4475 99.572 66.9495 99.354 66.2855 99.354C65.8335 99.354 65.4615 99.456 65.1695 99.66C64.8775 99.864 64.6595 100.146 64.5155 100.506C64.3715 100.866 64.2995 101.282 64.2995 101.754C64.2995 102.482 64.4675 103.066 64.8035 103.506C65.1395 103.946 65.6335 104.166 66.2855 104.166ZM74.3506 105C73.9666 105.076 73.5866 105.106 73.2106 105.09C72.8386 105.078 72.5066 105.004 72.2146 104.868C71.9226 104.728 71.7006 104.512 71.5486 104.22C71.4206 103.964 71.3506 103.706 71.3386 103.446C71.3306 103.182 71.3266 102.884 71.3266 102.552V96.72H72.3946V102.504C72.3946 102.768 72.3966 102.994 72.4006 103.182C72.4086 103.37 72.4506 103.532 72.5266 103.668C72.6706 103.924 72.8986 104.074 73.2106 104.118C73.5266 104.162 73.9066 104.15 74.3506 104.082V105ZM70.0126 99.402V98.52H74.3506V99.402H70.0126ZM78.1566 105.18C77.5126 105.18 76.9566 105.034 76.4886 104.742C76.0246 104.45 75.6666 104.046 75.4146 103.53C75.1626 103.014 75.0366 102.422 75.0366 101.754C75.0366 101.074 75.1646 100.478 75.4206 99.966C75.6766 99.454 76.0386 99.056 76.5066 98.772C76.9746 98.484 77.5246 98.34 78.1566 98.34C78.8046 98.34 79.3626 98.486 79.8306 98.778C80.2986 99.066 80.6566 99.468 80.9046 99.984C81.1566 100.496 81.2826 101.086 81.2826 101.754C81.2826 102.43 81.1566 103.026 80.9046 103.542C80.6526 104.054 80.2926 104.456 79.8246 104.748C79.3566 105.036 78.8006 105.18 78.1566 105.18ZM78.1566 104.166C78.8286 104.166 79.3286 103.942 79.6566 103.494C79.9846 103.046 80.1486 102.466 80.1486 101.754C80.1486 101.022 79.9826 100.44 79.6506 100.008C79.3186 99.572 78.8206 99.354 78.1566 99.354C77.7046 99.354 77.3326 99.456 77.0406 99.66C76.7486 99.864 76.5306 100.146 76.3866 100.506C76.2426 100.866 76.1706 101.282 76.1706 101.754C76.1706 102.482 76.3386 103.066 76.6746 103.506C77.0106 103.946 77.5046 104.166 78.1566 104.166Z" fill="#4C535F"/>
<path fill-rule="evenodd" clip-rule="evenodd" d="M56.9999 32.7584C57.74 32.2639 58.61 32 59.5 32C60.0714 32 60.5346 32.4632 60.5346 33.0346C60.5346 33.6061 60.0714 34.0693 59.5 34.0693C59.0193 34.0693 58.5493 34.2118 58.1496 34.4789C57.7498 34.746 57.4383 35.1256 57.2543 35.5698C57.0703 36.014 57.0222 36.5027 57.116 36.9742C57.2098 37.4457 57.4413 37.8788 57.7812 38.2188C58.1212 38.5587 58.5543 38.7902 59.0258 38.884C59.4973 38.9778 59.986 38.9297 60.4302 38.7457C60.8744 38.5617 61.254 38.2502 61.5211 37.8504C61.7882 37.4507 61.9307 36.9807 61.9307 36.5C61.9307 35.9286 62.3939 35.4654 62.9654 35.4654C63.5368 35.4654 64 35.9286 64 36.5C64 37.39 63.7361 38.26 63.2416 39.0001C62.7471 39.7401 62.0443 40.3169 61.2221 40.6575C60.3998 40.998 59.495 41.0872 58.6221 40.9135C57.7492 40.7399 56.9474 40.3113 56.318 39.682C55.6887 39.0526 55.2601 38.2508 55.0865 37.3779C54.9128 36.505 55.0019 35.6002 55.3425 34.7779C55.6831 33.9557 56.2599 33.2529 56.9999 32.7584Z" fill="#8D98AA"/>
<path fill-rule="evenodd" clip-rule="evenodd" d="M81.9802 38C82.5434 38 83 38.4661 83 39.041V47.7574C83 52.2164 82.1375 55.6085 79.9439 57.8604C77.7489 60.1136 74.4407 61 70.094 61H59.906C55.5606 61 52.2526 60.114 50.0572 57.861C47.8632 55.6094 47 52.2173 47 47.7574V44.2528C47 43.6779 47.4566 43.2118 48.0198 43.2118C48.5829 43.2118 49.0395 43.6779 49.0395 44.2528V47.7574C49.0395 52.014 49.8759 54.7227 51.5032 56.3928C53.1292 58.0615 55.7643 58.9181 59.906 58.9181H70.094C74.2371 58.9181 76.8721 58.0611 78.4977 56.3923C80.1248 54.7221 80.9605 52.0134 80.9605 47.7574V39.041C80.9605 38.4661 81.4171 38 81.9802 38Z" fill="#8D98AA"/>
<path fill-rule="evenodd" clip-rule="evenodd" d="M50.0997 28.0753C52.3242 25.8682 55.6763 25 60.0827 25H66.9716C67.5396 25 68 25.4568 68 26.0203C68 26.5838 67.5396 27.0406 66.9716 27.0406H60.0827C55.8792 27.0406 53.2042 27.8811 51.5541 29.5182C49.9039 31.1554 49.0568 33.8094 49.0568 37.9797C49.0568 38.5432 48.5964 39 48.0284 39C47.4604 39 47 38.5432 47 37.9797C47 33.608 47.8751 30.2823 50.0997 28.0753Z" fill="#8D98AA"/>
<path fill-rule="evenodd" clip-rule="evenodd" d="M70 31C70 30.4477 70.4792 30 71.0704 30H80.9296C81.5208 30 82 30.4477 82 31C82 31.5523 81.5208 32 80.9296 32H71.0704C70.4792 32 70 31.5523 70 31Z" fill="#8D98AA"/>
<path fill-rule="evenodd" clip-rule="evenodd" d="M76 25C76.5523 25 77 25.4792 77 26.0704V35.9296C77 36.5208 76.5523 37 76 37C75.4477 37 75 36.5208 75 35.9296V26.0704C75 25.4792 75.4477 25 76 25Z" fill="#8D98AA"/>
<path fill-rule="evenodd" clip-rule="evenodd" d="M75.0496 44.675L67.9723 50.8014L67.9535 50.8173C67.0931 51.5267 66.0135 51.9145 64.8993 51.9145C63.7851 51.9145 62.7055 51.5267 61.8451 50.8173C61.8358 50.8096 61.8267 50.8018 61.8177 50.7939L61.2713 50.3101C60.8139 49.941 60.2519 49.7253 59.6651 49.694C59.0746 49.6624 58.4894 49.8191 57.9934 50.1414L49.5972 55.8241C49.1286 56.1413 48.492 56.0177 48.1755 55.5481C47.859 55.0784 47.9823 54.4405 48.451 54.1233L56.8681 48.4264C57.7295 47.8634 58.7473 47.5897 59.7741 47.6445C60.801 47.6994 61.7839 48.0802 62.5806 48.7318C62.5909 48.7402 62.6011 48.7489 62.6111 48.7578L63.1591 49.2429C63.6508 49.6434 64.2653 49.8622 64.8993 49.8622C65.5351 49.8622 66.1512 49.6422 66.6436 49.2396L73.7209 43.1131L73.7397 43.0972C74.6002 42.3878 75.6797 42 76.7939 42C77.9081 42 78.9877 42.3878 79.8481 43.0972L79.867 43.1132L82.6454 45.5185C83.0734 45.889 83.1206 46.537 82.7509 46.9659C82.3812 47.3947 81.7345 47.4421 81.3066 47.0716L78.5382 44.6749C78.0458 44.2723 77.4297 44.0523 76.7939 44.0523C76.1582 44.0523 75.5421 44.2723 75.0496 44.675Z" fill="#8D98AA"/>
</svg>
